<svg width="96" height="97" viewBox="0 0 96 97" fill="none" xmlns="http://www.w3.org/2000/svg">
<g id="customize 1">
<rect y="0.400024" width="96" height="96" rx="48" fill="white"/>
<g id="Group">
<path id="Vector" d="M39.3387 23.7182L36.1135 31.5837L26.1704 21.6406C30.4275 19.4618 35.7749 20.1544 39.3387 23.7182Z" fill="#4BB3A4"/>
<path id="Vector_2" d="M31.3271 31.7276L43.2148 48.2556L50.4637 41.0067L42.5698 33.1128C42.9805 29.771 41.9024 26.283 39.3371 23.7177L31.3271 31.7276Z" fill="#60D9CE"/>
<path id="Vector_3" d="M31.3272 31.7277L45.5351 45.9356L40.6056 50.8652L32.7117 42.9713C29.3706 43.3812 25.8826 42.3031 23.3174 39.7378C19.7535 36.1738 19.0614 30.8275 21.24 26.57L28.8624 34.1924L31.3272 31.7277Z" fill="#4BB3A4"/>
<path id="Vector_4" d="M56.6631 73.0818L59.8883 65.2164L69.8314 75.1595C65.5741 77.3382 60.2269 76.6457 56.6631 73.0818Z" fill="#60D9CE"/>
<path id="Vector_5" d="M64.6709 65.0724L52.7831 48.5443L45.5342 55.7933L53.4281 63.6872C53.0174 67.029 54.0955 70.517 56.6608 73.0822L64.6709 65.0724Z" fill="#4BB3A4"/>
<path id="Vector_6" d="M64.6727 65.0728L50.4648 50.8649L55.3944 45.9353L63.2883 53.8292C66.6293 53.4193 70.1173 54.4974 72.6826 57.0628C76.2463 60.6265 76.9385 65.973 74.7599 70.2304L67.1375 62.608L64.6727 65.0728Z" fill="#60D9CE"/>
<path id="Vector_7" d="M73.24 23.1589L74.4723 24.3912C76.5055 26.4245 76.5055 29.7517 74.4723 31.785L71.4803 34.777L63.4575 29.8478L73.24 23.1589Z" fill="#FF6126"/>
<path id="Vector_8" d="M72.0093 21.9262L73.2416 23.1585L65.0059 31.3942L61.6235 24.9183L64.6155 21.9262C66.6488 19.8929 69.976 19.8929 72.0093 21.9262Z" fill="#FF8151"/>
<path id="Vector_9" d="M66.5514 29.8478L71.4807 34.777L66.5514 39.7061L58.5288 34.777L66.5514 29.8478Z" fill="#A3FDF6"/>
<path id="Vector_10" d="M61.6239 24.9186L66.5532 29.8478L60.0772 36.3237L56.6948 29.8478L61.6239 24.9186Z" fill="#DBFFFA"/>
<path id="Vector_11" d="M24.5232 70.3296L25.6059 74.5059L20.6562 75.7433L24.5232 70.3296Z" fill="#000E0F"/>
<path id="Vector_12" d="M21.8937 70.7938L23.7499 72.6499L20.6562 75.7435L21.8937 70.7938Z" fill="#116371"/>
<path id="Vector_13" d="M29.6459 65.2072L33.8013 72.4563L25.6065 74.5057L23.7505 72.6495L29.6459 65.2072Z" fill="#FFA07D"/>
<path id="Vector_14" d="M23.9422 62.5982L28.8718 67.5278L23.7497 72.6499L21.8936 70.7938L23.9422 62.5982Z" fill="#FFC0A8"/>
<path id="Vector_15" d="M61.6241 34.7764L66.5533 39.7056L33.8023 72.4567L28.873 67.5275L42.9284 48.8319L61.6241 34.7764Z" fill="#FFD15E"/>
<path id="Vector_16" d="M61.6214 34.7763L56.6924 29.8472L23.9417 62.5979L28.8708 67.527L61.6214 34.7763Z" fill="#FFEA7C"/>
</g>
</g>
</svg>
