<svg width="97" height="97" viewBox="0 0 97 97" fill="none" xmlns="http://www.w3.org/2000/svg">
<g id="surprise_5659573 1">
<rect x="0.333008" y="0.400024" width="96" height="96" rx="48" fill="white"/>
<g id="Group">
<g id="Group_2">
<path id="Vector" d="M66.5107 45.8706L69.5593 44.6532L76.1148 61.0685L73.0663 62.286L66.5107 45.8706Z" fill="#FF9F40"/>
</g>
<g id="Group_3">
<path id="Vector_2" d="M20.5737 61.0275L27.1293 44.6121L30.1778 45.8296L23.6223 62.2449L20.5737 61.0275Z" fill="#FFBE40"/>
</g>
<g id="Group_4">
<path id="Vector_3" d="M69.6612 76.3994H27.0054V43.5873H69.6612V76.3994Z" fill="#FFDF40"/>
</g>
<path id="Vector_4" d="M48.3311 43.5879H69.659V76.4H48.3311V43.5879Z" fill="#FFBE40"/>
<g id="Surprise_Point_3_">
<g id="Group_5">
<path id="Vector_5" d="M46.6924 66.5553H49.9736V69.8365H46.6924V66.5553Z" fill="#665252"/>
</g>
<g id="Group_6">
<path id="Vector_6" d="M73.0513 40.0871H76.3325V43.3683H73.0513V40.0871Z" fill="#D13465"/>
</g>
<g id="Group_7">
<path id="Vector_7" d="M27.0054 23.6812H30.2866V26.9625H27.0054V23.6812Z" fill="#FF525F"/>
</g>
<g id="Group_8">
<path id="Vector_8" d="M49.9736 63.2743H46.6923V62.5918C46.6923 59.9915 47.6649 57.7164 49.3615 56.3514C49.7492 56.0373 49.9736 55.5695 49.9736 55.0712C49.9736 54.1661 49.2381 53.4306 48.333 53.4306C47.4278 53.4306 46.6923 54.1661 46.6923 55.0712H43.4111C43.4111 52.3572 45.619 50.1494 48.333 50.1494C51.047 50.1494 53.2548 52.3572 53.2548 55.0712C53.2548 56.5677 52.5867 57.9647 51.4204 58.9052C50.5006 59.6454 49.9736 60.9896 49.9736 62.5918V63.2743Z" fill="#665252"/>
</g>
<path id="Vector_9" d="M49.9736 55.0715C49.9736 55.5699 49.7493 56.0376 49.3616 56.3517C48.9765 56.6615 48.6406 57.031 48.333 57.4277V63.2746H49.9736V62.5921C49.9736 60.99 50.5007 59.6458 51.4204 58.9055C52.5868 57.965 53.2548 56.568 53.2548 55.0715C53.2548 52.3575 51.047 50.1497 48.333 50.1497V53.4309C49.2382 53.4309 49.9736 54.1664 49.9736 55.0715Z" fill="#4D3636"/>
<g id="Group_9">
<path id="Vector_10" d="M38.4897 30.2437C35.7757 30.2437 33.5679 28.0359 33.5679 25.3218C33.5679 22.6078 35.7757 20.4 38.4897 20.4C41.2037 20.4 43.4115 22.6078 43.4115 25.3218C43.4115 28.0359 41.2037 30.2437 38.4897 30.2437Z" fill="#E1E6F0"/>
</g>
<g id="Group_10">
<path id="Vector_11" d="M63.0985 23.6812H59.8173V20.4H56.5361V23.6812H53.2549V26.9625H56.5361V30.2437H59.8173V26.9625H63.0985V23.6812Z" fill="#FFBE40"/>
<path id="Vector_12" d="M26.8959 30.2437H23.6147V33.5249H20.3335V36.8061H23.6147V40.0873H26.8959V36.8061H30.1771V33.5249H26.8959V30.2437Z" fill="#FFDF40"/>
</g>
<g id="Group_11">
<g id="Group_12">
<g id="Group_13">
<path id="Vector_13" d="M46.689 26.9629H49.9702V36.8066H46.689V26.9629Z" fill="#E1E6F0"/>
</g>
</g>
</g>
<g id="Group_14">
<path id="Vector_14" d="M34.6064 34.3615L37.4485 32.7206L40.7295 38.4034L37.8875 40.0443L34.6064 34.3615Z" fill="#E1E6F0"/>
</g>
<path id="Vector_15" d="M72.9408 30.2437H64.7377C63.1727 30.2437 61.7771 30.9787 60.875 32.1207L60.8718 32.1182L56.0669 38.2081L58.6432 40.2396L60.5766 37.7892C61.4494 39.1687 62.9877 40.0873 64.7377 40.0873C67.4517 40.0873 69.6596 37.8795 69.6596 35.1655C69.6596 34.5903 69.5595 34.0384 69.3774 33.5249H72.9408V30.2437Z" fill="#C3D0E6"/>
</g>
<g id="Group_15">
<path id="Vector_16" d="M48.333 66.5557H49.9736V69.8369H48.333V66.5557Z" fill="#4D3636"/>
<path id="Vector_17" d="M48.333 26.9624H49.9736V36.806H48.333V26.9624Z" fill="#C3D0E6"/>
</g>
</g>
</g>
</svg>
