<svg width="63" height="27" viewBox="0 0 63 27" fill="none" xmlns="http://www.w3.org/2000/svg">
<g id="logo" clip-path="url(#clip0_22_6509)">
<path id="Vector" d="M0.564453 21H13.2485V17.444H5.10045V0.980011H0.564453V21Z" fill="black"/>
<path id="Vector_2" d="M21.5874 18.228C19.2914 18.228 18.0034 16.548 18.0034 13.748V13.524C18.0034 10.724 19.3474 9.10002 21.5874 9.10002C23.8554 9.10002 25.1714 10.78 25.1714 13.58V13.776C25.1714 16.548 23.8554 18.228 21.5874 18.228ZM21.5594 21.308C25.9554 21.308 29.2874 18.368 29.2874 13.748V13.524C29.2874 8.96002 25.9834 6.02002 21.5874 6.02002C17.1914 6.02002 13.8594 9.01602 13.8594 13.608V13.832C13.8594 18.396 17.1914 21.308 21.5594 21.308Z" fill="black"/>
<path id="Vector_3" d="M37.6645 26.404C42.4805 26.404 45.3645 24.192 45.3925 19.852V6.35602H41.3605V8.54002C40.5205 7.05602 39.0925 6.02002 36.7125 6.02002C33.0725 6.02002 30.2725 8.96002 30.2725 13.16V13.356C30.2725 17.696 33.1005 20.356 36.6565 20.356C38.8125 20.356 40.5485 19.068 41.3605 17.64V19.852C41.3605 22.148 40.1285 23.436 37.6645 23.436C35.5925 23.436 34.6685 22.596 34.4165 21.308H30.3845C30.7765 24.332 32.9325 26.404 37.6645 26.404ZM37.8605 17.304C35.8445 17.304 34.4165 15.792 34.4165 13.356V13.132C34.4165 10.724 35.6765 9.10002 37.9445 9.10002C40.1565 9.10002 41.4725 10.612 41.4725 13.104V13.3C41.4725 15.792 39.9885 17.304 37.8605 17.304Z" fill="black"/>
<path id="Vector_4" d="M54.9614 18.228C52.6654 18.228 51.3774 16.548 51.3774 13.748V13.524C51.3774 10.724 52.7214 9.10002 54.9614 9.10002C57.2294 9.10002 58.5454 10.78 58.5454 13.58V13.776C58.5454 16.548 57.2294 18.228 54.9614 18.228ZM54.9334 21.308C59.3294 21.308 62.6614 18.368 62.6614 13.748V13.524C62.6614 8.96002 59.3574 6.02002 54.9614 6.02002C50.5654 6.02002 47.2334 9.01602 47.2334 13.608V13.832C47.2334 18.396 50.5654 21.308 54.9334 21.308Z" fill="black"/>
</g>
<defs>
<clipPath id="clip0_22_6509">
<rect width="63" height="27" fill="white"/>
</clipPath>
</defs>
</svg>
