<svg width="63" height="28" viewBox="0 0 63 28" fill="none" xmlns="http://www.w3.org/2000/svg">
<g id="logo">
<path id="Vector" d="M0.564453 21.5H13.2485V17.944H5.10045V1.47998H0.564453V21.5Z" fill="white"/>
<path id="Vector_2" d="M21.5874 18.728C19.2914 18.728 18.0034 17.048 18.0034 14.248V14.024C18.0034 11.224 19.3474 9.60002 21.5874 9.60002C23.8554 9.60002 25.1714 11.28 25.1714 14.08V14.276C25.1714 17.048 23.8554 18.728 21.5874 18.728ZM21.5594 21.808C25.9554 21.808 29.2874 18.868 29.2874 14.248V14.024C29.2874 9.46002 25.9834 6.52002 21.5874 6.52002C17.1914 6.52002 13.8594 9.51602 13.8594 14.108V14.332C13.8594 18.896 17.1914 21.808 21.5594 21.808Z" fill="white"/>
<path id="Vector_3" d="M37.6645 26.904C42.4805 26.904 45.3645 24.692 45.3925 20.352V6.85602H41.3605V9.04002C40.5205 7.55602 39.0925 6.52002 36.7125 6.52002C33.0725 6.52002 30.2725 9.46002 30.2725 13.66V13.856C30.2725 18.196 33.1005 20.856 36.6565 20.856C38.8125 20.856 40.5485 19.568 41.3605 18.14V20.352C41.3605 22.648 40.1285 23.936 37.6645 23.936C35.5925 23.936 34.6685 23.096 34.4165 21.808H30.3845C30.7765 24.832 32.9325 26.904 37.6645 26.904ZM37.8605 17.804C35.8445 17.804 34.4165 16.292 34.4165 13.856V13.632C34.4165 11.224 35.6765 9.60002 37.9445 9.60002C40.1565 9.60002 41.4725 11.112 41.4725 13.604V13.8C41.4725 16.292 39.9885 17.804 37.8605 17.804Z" fill="white"/>
<path id="Vector_4" d="M54.9614 18.728C52.6654 18.728 51.3774 17.048 51.3774 14.248V14.024C51.3774 11.224 52.7214 9.60002 54.9614 9.60002C57.2294 9.60002 58.5454 11.28 58.5454 14.08V14.276C58.5454 17.048 57.2294 18.728 54.9614 18.728ZM54.9334 21.808C59.3294 21.808 62.6614 18.868 62.6614 14.248V14.024C62.6614 9.46002 59.3574 6.52002 54.9614 6.52002C50.5654 6.52002 47.2334 9.51602 47.2334 14.108V14.332C47.2334 18.896 50.5654 21.808 54.9334 21.808Z" fill="white"/>
</g>
</svg>
